# xmcd
#
# Track frame offsets:
#	150
#	16686
#	53021
#	69728
#	86961
#	96965
#	124089
#	145740
#	160845
#	173715
#	198716
#	216291
#
# Disc length: 3044 seconds
#
# Revision: 1
# Processed by: cddbd v1.5.2PL0 Copyright (c) Steve Scherf et al.
# Submitted via: audiograbber 1.83.01
#
DISCID=a90be20c
DTITLE=Blackmore's Night - Secret Voyage
DYEAR=2008
DGENRE=Hard Rock
TTITLE0=God save the keg
TTITLE1=Locked within the crystal ball
TTITLE2=Gilded cage
TTITLE3=Toast to tomorrow
TTITLE4=Prince Waldeck's Galliard
TTITLE5=Rainbow Eyes
TTITLE6=The Circle
TTITLE7=Sister Gypsy
TTITLE8=Can't help falling in love
TTITLE9=Peasant's promise
TTITLE10=Far far away
TTITLE11=Empty words
EXTD=
EXTT0=
EXTT1=
EXTT2=
EXTT3=
EXTT4=
EXTT5=
EXTT6=
EXTT7=
EXTT8=
EXTT9=
EXTT10=
EXTT11=
PLAYORDER=
